<svg width="48" height="28" viewBox="0 0 48 28" fill="none" xmlns="http://www.w3.org/2000/svg">
  <g id="Logo">
    <path id="Vector" d="M17.4905 2.97418H30.413V24.8367H17.4905V2.97418Z" fill="#B27BFF" />
    <g id="Logo_2">
      <path id="Vector_2"
        d="M18.3109 13.9055C18.3109 9.46353 20.5261 5.52356 23.931 2.97416C21.4287 1.12013 18.27 0 14.824 0C6.65992 0 0.0551758 6.21876 0.0551758 13.9055C0.0551758 21.5921 6.65992 27.811 14.8238 27.811C18.2698 27.811 21.4285 26.6909 23.931 24.8367C20.5261 22.326 18.3109 18.3475 18.3109 13.9055Z"
        fill="#9E59FF" />
      <path id="Vector_3"
        d="M47.8477 13.9055C47.8477 21.5921 41.243 27.811 33.0791 27.811C29.6331 27.811 26.4744 26.6909 23.9719 24.8367C27.4179 22.2874 29.5922 18.3475 29.5922 13.9055C29.5922 9.46353 27.3768 5.52356 23.9719 2.97416C26.4742 1.12013 29.6331 0 33.0791 0C41.243 0 47.8479 6.25747 47.8479 13.9055H47.8477Z"
        fill="#9E59FF" />
    </g>
  </g>
</svg>
